<svg clip-rule="evenodd" fill-rule="evenodd" stroke-linecap="round" stroke-linejoin="round" stroke-miterlimit="1.5" viewBox="0 0 384 128" xmlns="http://www.w3.org/2000/svg"><path d="m975 264h-575.385l-31.615 12.5v67.5h607z" fill="#1e2043" stroke="#ac38cc" stroke-width="1.64" transform="matrix(.632619 0 0 1.6 -232.804 -422.4)"/><path d="m256.0035846.00007722h127.99941876v127.99941876h-127.99941876z" fill="#aa34cb" fill-opacity=".37" stroke-width="2.16882"/><circle cx="319.99844864" cy="63.99794136" fill="#aa34cb" fill-opacity=".42" r="46.08799864" stroke-width="1.35203"/><path d="m.158-.233v-.153c.053-.002.092-.011.119-.026.026-.016.039-.043.039-.08v-.014c0-.025-.007-.045-.022-.058s-.035-.02-.059-.02c-.026 0-.047.008-.064.024s-.029.036-.035.061l-.122-.051c.006-.02.015-.04.026-.059.011-.018.026-.036.045-.051.018-.015.04-.027.066-.036.025-.009.055-.014.089-.014.035 0 .066.005.095.015s.053.024.074.042.037.04.048.065.016.053.016.084c0 .028-.005.053-.014.076s-.022.042-.038.059-.035.031-.056.042-.044.018-.067.022v.072zm.072.245c-.032 0-.055-.007-.068-.022-.014-.015-.021-.033-.021-.054v-.024c0-.021.007-.039.021-.054.013-.015.036-.022.068-.022s.055.007.069.022c.013.015.02.033.02.054v.024c0 .021-.007.039-.02.054-.014.015-.037.022-.069.022z" fill="#c6f8fe" fill-rule="nonzero" transform="matrix(103.923 0 0 104.143 294.695 100.346)"/></svg>