<svg clip-rule="evenodd" fill-rule="evenodd" stroke-linejoin="round" stroke-miterlimit="2" viewBox="0 0 64 64" xmlns="http://www.w3.org/2000/svg"><path d="m0 0h64v64h-64z" fill="none"/><path d="m32.932 5.266 4.044 17.903 15.519-9.8-9.8 15.519 17.903 4.044-17.903 4.044 9.8 15.519-15.519-9.8-4.044 17.903-4.044-17.903-15.519 9.8 9.8-15.519-17.903-4.044 17.903-4.044-9.8-15.519 15.519 9.8z" fill-opacity=".27"/><path d="m32 4.334 4.044 17.903 15.519-9.8-9.8 15.519 17.903 4.044-17.903 4.044 9.8 15.519-15.519-9.8-4.044 17.903-4.044-17.903-15.519 9.8 9.8-15.519-17.903-4.044 17.903-4.044-9.8-15.519 15.519 9.8 4.044-17.903z" fill="#fff"/><path d="m32 4.334 4.044 17.903 15.519-9.8-9.8 15.519 17.903 4.044-17.903 4.044 9.8 15.519-15.519-9.8-4.044 17.903-4.044-17.903-15.519 9.8 9.8-15.519-17.903-4.044 17.903-4.044-9.8-15.519 15.519 9.8 4.044-17.903zm0 4.539 3.381 14.966 12.973-8.193s-8.193 12.973-8.193 12.973l14.966 3.381s-14.966 3.381-14.966 3.381l8.193 12.973s-12.973-8.193-12.973-8.193l-3.381 14.966s-3.381-14.966-3.381-14.966l-12.973 8.193s8.193-12.973 8.193-12.973l-14.966-3.381s14.966-3.381 14.966-3.381l-8.193-12.973s12.973 8.193 12.973 8.193z" fill="#606060"/></svg>