<svg clip-rule="evenodd" fill-rule="evenodd" stroke-linejoin="round" stroke-miterlimit="2" viewBox="0 0 777 72" xmlns="http://www.w3.org/2000/svg"><g transform="matrix(1.77427689 0 0 .84196627 -337.883552 -235.037878)"><path d="m625.885 283.435h-433.418v76.565h422.146l11.272-23.754z" fill="#1b1c3c"/><path d="m627.012 337.23v-56.171h-435.672v81.316h423.74zm-1.127-53.795h-433.418v76.565h422.146l11.272-23.754z" fill="#04b9a5"/></g><path d="m396.035 70h19.965v14.555h-19.965z" fill="#006f80" transform="matrix(1.87455234 -.15026024 0 1.87454503 -716.248949 -45.169648)"/><path d="m399.217 71.855h19.966l-3.183 12.7h-19.965z" fill="#04b9a5" transform="matrix(1.87455234 -.15026024 0 1.87454503 -716.248949 -45.169648)"/><path d="m394 65h13v5h-13z" fill="#006f80" transform="matrix(1.14859237 -.09206879 0 1.49963602 -426.407364 -42.158143)"/><path d="m795.45 69.442 8.45 16.9h-16.9z" fill="#40bbb4" transform="matrix(.81027 0 0 -.81027013 97.421046 98.949915)"/></svg>